<svg width="11" height="20" viewBox="0 0 11 20" fill="none" xmlns="http://www.w3.org/2000/svg">
<path d="M4.94423 20V0H6.12795V20H4.94423ZM8.64698 6.20312C8.56999 5.46354 8.25241 4.89062 7.69423 4.48438C7.13605 4.07292 6.43351 3.86719 5.58661 3.86719C4.98032 3.86719 4.45582 3.97135 4.01312 4.17969C3.57043 4.38281 3.22638 4.66406 2.98097 5.02344C2.74038 5.3776 2.62008 5.78125 2.62008 6.23438C2.62008 6.61458 2.70188 6.94271 2.86549 7.21875C3.0339 7.49479 3.25284 7.72656 3.52231 7.91406C3.79659 8.09636 4.09011 8.25 4.40289 8.375C4.71566 8.49479 5.0164 8.59375 5.30512 8.67188L6.74869 9.07812C7.22025 9.20312 7.70385 9.3724 8.19948 9.58594C8.6951 9.79948 9.15464 10.0807 9.57808 10.4297C10.0015 10.7786 10.3432 11.2109 10.603 11.7266C10.8677 12.2422 11 12.8594 11 13.5781C11 14.4844 10.7835 15.2891 10.3504 15.9922C9.92214 16.6953 9.29899 17.25 8.48097 17.6562C7.66776 18.0625 6.68373 18.2656 5.52887 18.2656C4.42213 18.2656 3.46457 18.0755 2.65617 17.6953C1.84777 17.3151 1.215 16.776 0.757874 16.0781C0.300744 15.375 0.0481189 14.5417 0 13.5781H2.23753C2.28084 14.1562 2.45407 14.638 2.75722 15.0234C3.06518 15.4036 3.45735 15.6875 3.93373 15.875C4.41492 16.0573 4.94182 16.1484 5.51444 16.1484C6.14479 16.1484 6.70538 16.0417 7.19619 15.8281C7.69182 15.6094 8.08158 15.3073 8.36549 14.9219C8.64939 14.5312 8.79134 14.0755 8.79134 13.5547C8.79134 13.0807 8.66623 12.6927 8.41601 12.3906C8.1706 12.0885 7.83618 11.8385 7.41273 11.6406C6.99409 11.4427 6.52012 11.2682 5.99081 11.1172L4.24409 10.6016C3.06037 10.2526 2.12205 9.73958 1.42913 9.0625C0.741032 8.38542 0.396982 7.48958 0.396982 6.375C0.396982 5.45312 0.627953 4.64844 1.0899 3.96094C1.55184 3.27344 2.17738 2.73958 2.96654 2.35938C3.75569 1.97396 4.64589 1.78125 5.63714 1.78125C6.63801 1.78125 7.521 1.97135 8.28609 2.35156C9.05599 2.73177 9.66229 3.25521 10.105 3.92188C10.5477 4.58333 10.7787 5.34375 10.7979 6.20312H8.64698Z" fill="#7A7A7A"/>
</svg>
