<svg width="16" height="20" viewBox="0 0 16 20" fill="none" xmlns="http://www.w3.org/2000/svg">
<path d="M4 5C4 4.44772 4.44772 4 5 4H6C6.55228 4 7 4.44772 7 5C7 5.55228 6.55228 6 6 6H5C4.44772 6 4 5.55228 4 5Z" fill="#7A7A7A"/>
<path d="M9 5C9 4.44772 9.44771 4 10 4H11C11.5523 4 12 4.44772 12 5C12 5.55228 11.5523 6 11 6H10C9.44771 6 9 5.55228 9 5Z" fill="#7A7A7A"/>
<path d="M4 9C4 8.44772 4.44772 8 5 8H6C6.55228 8 7 8.44772 7 9C7 9.55229 6.55228 10 6 10H5C4.44772 10 4 9.55229 4 9Z" fill="#7A7A7A"/>
<path d="M9 9C9 8.44772 9.44771 8 10 8H11C11.5523 8 12 8.44772 12 9C12 9.55229 11.5523 10 11 10H10C9.44771 10 9 9.55229 9 9Z" fill="#7A7A7A"/>
<path fill-rule="evenodd" clip-rule="evenodd" d="M0.87868 0.87868C1.44129 0.31607 2.20435 0 3 0H13C13.7956 0 14.5587 0.31607 15.1213 0.87868C15.6839 1.44129 16 2.20435 16 3V19C16 19.5523 15.5523 20 15 20H1C0.447715 20 0 19.5523 0 19V3C0 2.20435 0.31607 1.44129 0.87868 0.87868ZM2 18H5V14C5 13.4696 5.21071 12.9609 5.58579 12.5858C5.96086 12.2107 6.46957 12 7 12H9C9.53043 12 10.0391 12.2107 10.4142 12.5858C10.7893 12.9609 11 13.4696 11 14V18H14V3C14 2.73478 13.8946 2.48043 13.7071 2.29289C13.5196 2.10536 13.2652 2 13 2H3C2.73478 2 2.48043 2.10536 2.29289 2.29289C2.10536 2.48043 2 2.73478 2 3V18ZM9 18V14H7V18H9Z" fill="#7A7A7A"/>
</svg>
