<svg width="20" height="20" viewBox="0 0 20 20" fill="none" xmlns="http://www.w3.org/2000/svg">
<path fill-rule="evenodd" clip-rule="evenodd" d="M10 0C4.47727 0 0 4.47727 0 10C0 15.5227 4.47727 20 10 20C15.5227 20 20 15.5227 20 10C20 4.47727 15.5227 0 10 0ZM5.63631 9.45094H1.56575C1.81361 5.58023 4.66695 2.41873 8.39206 1.7013C8.12276 2.06541 7.82632 2.50548 7.52999 3.01607C6.64071 4.55104 5.74456 6.74128 5.63631 9.45094ZM12.47 3.01601C12.1736 2.50542 11.8772 2.06541 11.6079 1.7013C15.333 2.41873 18.1864 5.58023 18.4342 9.45094H14.3637C14.2554 6.74128 13.3593 4.55098 12.47 3.01601ZM8.86961 3.79318C9.28017 3.08591 9.68888 2.53301 10.0006 2.15477C10.4202 2.66918 10.7981 3.21655 11.1304 3.79136C11.9214 5.15495 12.7066 7.08023 12.8141 9.45094H7.18598C7.29363 7.08064 8.0787 5.15569 8.86961 3.79318ZM3.85796 15.8057C2.6105 14.486 1.82172 12.8004 1.60675 10.9991H5.66196C5.84579 13.5019 6.69041 15.5348 7.53002 16.984C7.79321 17.4377 8.08114 17.8765 8.39247 18.2984C6.65973 17.9622 5.07329 17.0915 3.85796 15.8057ZM11.1304 16.2068C10.7198 16.9141 10.3111 17.467 9.99943 17.8452C9.57939 17.3307 9.20165 16.7832 8.86964 16.2087C8.12941 14.9313 7.39325 13.1627 7.21503 10.9991H12.7849C12.6059 13.1644 11.8706 14.9312 11.1304 16.2068ZM12.47 16.9839C13.3096 15.5348 14.1551 13.502 14.3381 10.9991H18.3923C18.1773 12.8001 17.3888 14.4854 16.1417 15.8051C14.9268 17.0907 13.341 17.9615 11.6088 18.2982C11.8775 17.9343 12.1738 17.4943 12.47 16.9839Z" fill="#7A7A7A"/>
</svg>
